{
  "accessors": [
    {
      "bufferView": 2,
      "componentType": 5126,
      "count": 65532,
      "max": [
        5.008665084838867,
        5.0086164474487305,
        0.1904325783252716
      ],
      "min": [
        -5.008665084838867,
        -5.0086164474487305,
        -0.1904325783252716
      ],
      "type": "VEC3"
    },
    {
      "bufferView": 2,
      "byteOffset": 786384,
      "componentType": 5126,
      "count": 65532,
      "max": [
        1.0,
        1.0,
        1.0
      ],
      "min": [
        -1.0,
        -1.0,
        -1.0
      ],
      "type": "VEC3"
    },
    {
      "bufferView": 1,
      "componentType": 5126,
      "count": 65532,
      "max": [
        0.9973271489143372,
        0.996903121471405
      ],
      "min": [
        0.0025412896648049355,
        0.0025412896648049355
      ],
      "type": "VEC2"
    },
    {
      "bufferView": 1,
      "byteOffset": 524256,
      "componentType": 5126,
      "count": 65532,
      "max": [
        0.9973271489143372,
        0.996903121471405
      ],
      "min": [
        0.0025412896648049355,
        0.0025412896648049355
      ],
      "type": "VEC2"
    },
    {
      "bufferView": 0,
      "componentType": 5125,
      "count": 257403,
      "type": "SCALAR"
    },
    {
      "bufferView": 2,
      "byteOffset": 1572768,
      "componentType": 5126,
      "count": 44990,
      "max": [
        4.999999523162842,
        4.999950885772705,
        0.19383378326892853
      ],
      "min": [
        -4.999999523162842,
        -4.999950885772705,
        -0.19383376836776733
      ],
      "type": "VEC3"
    },
    {
      "bufferView": 2,
      "byteOffset": 2112648,
      "componentType": 5126,
      "count": 44990,
      "max": [
        1.0,
        1.0,
        1.0
      ],
      "min": [
        -1.0,
        -1.0,
        -1.0
      ],
      "type": "VEC3"
    },
    {
      "bufferView": 1,
      "byteOffset": 1048512,
      "componentType": 5126,
      "count": 44990,
      "max": [
        0.9974586963653564,
        0.996903121471405
      ],
      "min": [
        0.0025412968825548887,
        0.0025412896648049355
      ],
      "type": "VEC2"
    },
    {
      "bufferView": 1,
      "byteOffset": 1408432,
      "componentType": 5126,
      "count": 44990,
      "max": [
        0.9974586963653564,
        0.996903121471405
      ],
      "min": [
        0.0025412968825548887,
        0.0025412896648049355
      ],
      "type": "VEC2"
    },
    {
      "bufferView": 0,
      "byteOffset": 1029612,
      "componentType": 5125,
      "count": 157545,
      "type": "SCALAR"
    }
  ],
  "asset": {
    "extras": {
      "author": "gpz3d (https://sketchfab.com/gpz3d)",
      "license": "SKETCHFAB Standard (https://sketchfab.com/licenses)",
      "source": "https://sketchfab.com/3d-models/bitcoin-11f23766723c43f9a634135b730aac2a",
      "title": "Bitcoin"
    },
    "generator": "Sketchfab-15.22.0",
    "version": "2.0"
  },
  "bufferViews": [
    {
      "buffer": 0,
      "byteLength": 1659792,
      "name": "floatBufferViews",
      "target": 34963
    },
    {
      "buffer": 0,
      "byteLength": 1768352,
      "byteOffset": 1659792,
      "byteStride": 8,
      "name": "floatBufferViews",
      "target": 34962
    },
    {
      "buffer": 0,
      "byteLength": 2652528,
      "byteOffset": 3428144,
      "byteStride": 12,
      "name": "floatBufferViews",
      "target": 34962
    }
  ],
  "buffers": [
    {
      "byteLength": 6080672,
      "uri": "scene.bin"
    }
  ],
  "images": [
    {
      "uri": "textures/Material.001_baseColor.png"
    },
    {
      "uri": "textures/Material.001_metallicRoughness.png"
    }
  ],
  "materials": [
    {
      "doubleSided": true,
      "name": "Material.001",
      "pbrMetallicRoughness": {
        "baseColorTexture": {
          "index": 0
        },
        "metallicRoughnessTexture": {
          "index": 1
        }
      }
    }
  ],
  "meshes": [
    {
      "name": "Bitcoin_Material.001_0",
      "primitives": [
        {
          "attributes": {
            "NORMAL": 1,
            "POSITION": 0,
            "TEXCOORD_0": 2,
            "TEXCOORD_1": 3
          },
          "indices": 4,
          "material": 0,
          "mode": 4
        }
      ]
    },
    {
      "name": "Bitcoin_Material.001_0",
      "primitives": [
        {
          "attributes": {
            "NORMAL": 6,
            "POSITION": 5,
            "TEXCOORD_0": 7,
            "TEXCOORD_1": 8
          },
          "indices": 9,
          "material": 0,
          "mode": 4
        }
      ]
    }
  ],
  "nodes": [
    {
      "children": [
        1
      ],
      "matrix": [
        1.063975214958191,
        0.0,
        0.0,
        0.0,
        0.0,
        2.3624995625541676e-16,
        -1.063975214958191,
        0.0,
        0.0,
        1.063975214958191,
        2.3624995625541676e-16,
        0.0,
        0.0,
        0.0,
        0.0,
        1.0
      ],
      "name": "Sketchfab_model"
    },
    {
      "children": [
        2
      ],
      "matrix": [
        0.009999999776482582,
        0.0,
        0.0,
        0.0,
        0.0,
        0.0,
        0.009999999776482582,
        0.0,
        0.0,
        -0.009999999776482582,
        0.0,
        0.0,
        0.0,
        0.0,
        0.0,
        1.0
      ],
      "name": "60f4752c81624872b7eb2b0e7c6f4ee6.fbx"
    },
    {
      "children": [
        3
      ],
      "name": "RootNode"
    },
    {
      "children": [
        4,
        5
      ],
      "matrix": [
        1.0,
        0.0,
        0.0,
        0.0,
        0.0,
        1.0,
        0.0,
        0.0,
        0.0,
        0.0,
        1.0,
        0.0,
        0.0,
        0.005851477850228548,
        0.0,
        1.0
      ],
      "name": "Bitcoin"
    },
    {
      "mesh": 0,
      "name": "Bitcoin_Material.001_0"
    },
    {
      "mesh": 1,
      "name": "Bitcoin_Material.001_0"
    }
  ],
  "samplers": [
    {
      "magFilter": 9729,
      "minFilter": 9987,
      "wrapS": 10497,
      "wrapT": 10497
    }
  ],
  "scene": 0,
  "scenes": [
    {
      "name": "Sketchfab_Scene",
      "nodes": [
        0
      ]
    }
  ],
  "textures": [
    {
      "sampler": 0,
      "source": 0
    },
    {
      "sampler": 0,
      "source": 1
    }
  ]
}
