<?xml version="1.0" encoding="utf-8"?>
<!-- Generator: Adobe Illustrator 28.0.0, SVG Export Plug-In . SVG Version: 6.00 Build 0)  -->
<svg version="1.1" id="_x32_" xmlns="http://www.w3.org/2000/svg" xmlns:xlink="http://www.w3.org/1999/xlink" x="0px" y="0px"
	 viewBox="0 0 930.76 930.77" style="enable-background:new 0 0 930.76 930.77;" xml:space="preserve">
<style type="text/css">
	.st0{fill:#231F20;}
	.st1{fill:#F7931A;}
	.st2{fill:#FFFFFF;}
</style>
<g>
	<g>
		<g>
			<g>
				<path class="st0" d="M102.67,661.75c0.99-28.25,2.35-67.03,27.55-106.29c15.23-23.72,33.57-38.91,46.22-47.76
					c-10.35,34.43-25.72,103.85-4.8,185.53c16.58,64.75,48.2,106.87,56.4,117.42c46.33,59.59,102.61,86.54,129.75,97.38
					c17.86,7.14,62.11,22.87,119.45,22.56c12.48-0.33,25.03-1.17,37.62-2.53c20.37-2.65,41.83-7.56,63.94-15.61
					c109.68-39.94,158.11-128.92,169.27-150.95c8.19-16.16,65.92-135.09,7.68-265.79c-50.76-113.9-153.33-155.37-173.67-163.12
					c1.33,12.62,1.92,28.54,0.01,46.73c-1.95,18.65-5.98,34.43-10.02,46.68c-2.2-15.99-5.63-34.07-10.98-53.61
					c-5.34-19.5-11.59-36.77-17.83-51.63c-44.14,47.99-87.46,74.32-116.39,88.75c-39.85,19.87-59.65,20.77-75.95,16.02
					c-25.4-7.4-40.33-27.94-46.87-38.57c6.51,4.19,15.88,9.17,27.89,12.46c7.48,2.05,14.28,2.97,19.96,3.34
					c-4.65-7.72-9.3-15.44-13.95-23.16c4.55,3.49,10.31,7.37,17.31,10.96c6.99,3.59,13.48,6.01,18.96,7.67
					c43.16-16.63,69.59-57.2,89.97-96.77c-28.85,12.36-58.24-1.89-81.01-15.69c-22.77-13.8-35-9.92-53.27,4.57
					c-0.05,0.33-0.45,0.09-0.64,0.2c-2.33,8.58-3.22,17.33-3.36,26.22c-9.13-6.72-13.72-16.15-17.07-26.76
					c-8.17-1.02-15.92-2.76-23.56-5.86c-0.17,9.33,0.21,18.65,0.97,27.95c-10.56-11.3-16-23.79-16.09-39.22
					c0-0.56,0.25,0.02-0.71-0.49c18.69-27.73,30.86-33.32,68.88-30.65c38.02,2.67,72.73-46.85,139.63-53.69
					c66.9-6.84,134.81-75.84,146.11-147.42c8.39,56.41-6.58,117.93-44.32,160.73c50.45-3.43,94.3-42.77,124.53-79.85
					c-13.83,51.1-50.88,97.26-91.29,129.78c32.32-6.42,67.69-12.35,95.75-30.53c-11.77,20.06-24.53,31.04-34.08,37.37
					c0,0-3.33,2.21-30.58,17.32c34.66,14.32,160.85,71.23,216.52,205.31c24.58,59.2,31.57,124.24,23.24,188.13
					c42.22-86.64,57.99-187.09,38.9-289.1C875.46,127.2,632.37-39.25,379.77,8.02C127.18,55.3-39.27,298.39,8,550.98
					c16.88,90.17,58.71,169.37,117.02,231.78C113.45,754.81,100.88,712.82,102.67,661.75z"/>
				<path class="st0" d="M471.78,210.91c-15.47,5.77-30.94,11.54-46.4,17.31c8.57,2.43,17.13,4.85,25.7,7.28
					C457.97,227.31,464.88,219.11,471.78,210.91z"/>
			</g>
		</g>
	</g>
	<g>
		<path class="st1" d="M382.14,762.11l15.41-37.44h23.12v1.55h-1.84c-1.68,0-3.02,0.29-4.02,0.88c-0.7,0.39-1.26,1.05-1.68,1.97
			c-0.31,0.67-0.46,2.42-0.46,5.24v37.44c0,2.9,0.15,4.72,0.46,5.44c0.31,0.73,0.93,1.36,1.88,1.91c0.95,0.54,2.22,0.82,3.81,0.82
			h1.84v1.55h-29.65v-1.55h1.84c1.68,0,3.02-0.29,4.02-0.88c0.7-0.39,1.26-1.06,1.68-2.01c0.31-0.67,0.46-2.43,0.46-5.28v-42.09
			l-21.78,51.81h-1.01l-22.11-51.43v40c0,2.79,0.07,4.51,0.21,5.15c0.36,1.4,1.15,2.53,2.37,3.41c1.21,0.88,3.12,1.32,5.72,1.32
			v1.55h-19.43v-1.55h0.59c1.26,0.03,2.43-0.17,3.52-0.61c1.09-0.43,1.91-1.01,2.47-1.74c0.56-0.73,0.99-1.74,1.3-3.06
			c0.06-0.31,0.08-1.73,0.08-4.27V734.3c0-2.87-0.15-4.67-0.46-5.38c-0.31-0.71-0.94-1.34-1.88-1.89c-0.95-0.54-2.22-0.82-3.81-0.82
			h-1.8v-1.55h23.2L382.14,762.11z"/>
		<path class="st1" d="M457.92,779.91v1.55h-29.69v-1.55h1.88c1.65,0,2.97-0.29,3.98-0.88c0.73-0.39,1.28-1.06,1.68-2.01
			c0.31-0.67,0.46-2.43,0.46-5.28v-37.36c0-2.9-0.15-4.72-0.46-5.44c-0.31-0.73-0.93-1.36-1.86-1.91c-0.94-0.54-2.2-0.82-3.79-0.82
			h-1.88v-1.55h29.69v1.55h-1.88c-1.65,0-2.97,0.29-3.98,0.88c-0.73,0.39-1.3,1.06-1.72,2.01c-0.31,0.67-0.46,2.43-0.46,5.28v37.36
			c0,2.9,0.16,4.72,0.48,5.44c0.32,0.73,0.95,1.36,1.88,1.91c0.93,0.54,2.2,0.82,3.79,0.82H457.92z"/>
		<g>
			<g>
				<path class="st2" d="M489.4,617.39l-7.78,72.63l-183.7,0v-5.65h6.87c6,0,10.83-1.07,14.5-3.2c2.64-1.42,4.68-3.86,6.1-7.32
					c1.12-2.44,1.68-8.85,1.68-19.22l0-136.1c0-10.58-0.56-17.19-1.68-19.84c-1.12-2.64-3.38-4.96-6.79-6.94
					c-3.41-1.98-8.01-2.98-13.81-2.98h-6.87l0-5.65l110.31,0v5.65h-9c-6,0-10.83,1.07-14.5,3.2c-2.65,1.43-4.73,3.87-6.26,7.32
					c-1.12,2.44-1.68,8.85-1.68,19.23l0,131.83c0,10.58,0.61,17.32,1.83,20.22c1.22,2.9,3.61,5.06,7.17,6.49
					c2.54,0.92,8.7,1.37,18.46,1.37h17.24c10.99,0,20.14-1.93,27.46-5.8c7.32-3.86,13.66-9.97,19-18.31
					c5.34-8.34,10.4-20.65,15.18-36.92H489.4z"/>
				<path class="st2" d="M602.31,478.85l0,169.21c0,12.72,0.56,20.83,1.68,24.34c1.12,3.51,3.46,6.38,7.02,8.62
					c3.56,2.24,9.26,3.36,17.09,3.36h4.73v5.64H523.88v-5.64h5.49c8.85,0,15.16-1.02,18.92-3.05c3.76-2.03,6.31-4.83,7.63-8.39
					c1.32-3.56,1.98-11.85,1.98-24.87V540.8c0-9.56-0.46-15.54-1.37-17.93c-0.92-2.39-2.62-4.42-5.11-6.1
					c-2.49-1.68-5.37-2.52-8.62-2.52c-5.19,0-11.5,1.63-18.92,4.88l-2.75-5.49l76.14-34.79H602.31z"/>
			</g>
			<path class="st1" d="M485.54,724.67l28.02,35.22v-24.42c0-3.41-0.49-5.71-1.47-6.91c-1.34-1.62-3.59-2.4-6.74-2.35v-1.55h18.76
				v1.55c-2.4,0.31-4.01,0.71-4.84,1.19c-0.82,0.49-1.47,1.28-1.93,2.39c-0.46,1.1-0.69,3-0.69,5.68v47.29h-1.42l-38.41-47.29v36.1
				c0,3.27,0.75,5.47,2.24,6.62c1.49,1.15,3.2,1.72,5.13,1.72h1.34v1.55H465.4v-1.55c3.13-0.03,5.3-0.67,6.53-1.93
				c1.23-1.26,1.84-3.39,1.84-6.41V731.5l-1.21-1.51c-1.2-1.51-2.26-2.5-3.18-2.97c-0.92-0.47-2.25-0.74-3.98-0.8v-1.55H485.54z"/>
		</g>
		<path class="st1" d="M553.78,727.93v23.12h1.13c3.6,0,6.21-1.13,7.83-3.39c1.62-2.26,2.65-5.6,3.1-10.01h1.59v29.74h-1.59
			c-0.34-3.24-1.04-5.89-2.12-7.96c-1.08-2.07-2.32-3.45-3.75-4.17c-1.42-0.71-3.49-1.07-6.2-1.07v16c0,3.13,0.13,5.04,0.4,5.74
			c0.26,0.7,0.76,1.27,1.49,1.72c0.73,0.45,1.9,0.67,3.52,0.67h3.39c5.3,0,9.56-1.23,12.75-3.69c3.2-2.46,5.49-6.2,6.89-11.22h1.55
			l-2.55,18.05h-49.09v-1.55h1.88c1.65,0,2.97-0.29,3.98-0.88c0.73-0.39,1.28-1.06,1.68-2.01c0.31-0.67,0.46-2.43,0.46-5.28v-37.36
			c0-2.57-0.07-4.15-0.21-4.73c-0.28-0.98-0.8-1.73-1.55-2.26c-1.06-0.78-2.51-1.17-4.36-1.17h-1.88v-1.55h47.54v16.79h-1.59
			c-0.81-4.1-1.95-7.05-3.41-8.84c-1.47-1.79-3.54-3.1-6.22-3.94c-1.56-0.5-4.5-0.75-8.8-0.75H553.78z"/>
	</g>
</g>
<path class="st1" d="M329.68,335.67c0,0-33.93,23.54-65.77,9.69s-118.39-63.7-175.17-6.92c0,0,52.62-15.23,52.62,15.23
	s-75.47-18.69-121.16,35.31c0,0,18.12-12.77,83.56,2.6c10.93,2.57,21.42,6.76,31.07,12.5c12.38,7.36,37.84,15.77,75.58-4.24
	c4.26-2.26,9.49-1.99,13.33,0.93c5.66,4.31,8.36,14.06-13.14,35.98C210.59,436.76,278.44,417.37,329.68,335.67z"/>
</svg>
