<?xml version="1.0" encoding="utf-8"?>
<!-- Generator: Adobe Illustrator 28.0.0, SVG Export Plug-In . SVG Version: 6.00 Build 0)  -->
<svg version="1.1" id="_x32_" xmlns="http://www.w3.org/2000/svg" xmlns:xlink="http://www.w3.org/1999/xlink" x="0px" y="0px"
	 viewBox="0 0 930.8 930.8" style="enable-background:new 0 0 930.8 930.8;" xml:space="preserve">
<style type="text/css">
	.st0{fill:#FFFFFF;}
	.st1{fill:#231F20;}
	.st2{fill:#F7931A;}
</style>
<g>
	<g>
		<g>
			<g>
				<circle class="st0" cx="465.4" cy="465.4" r="465.4"/>
				<path class="st1" d="M102.7,661.8c1-28.2,2.3-67,27.6-106.3c15.2-23.7,33.6-38.9,46.2-47.8c-10.4,34.4-25.7,103.8-4.8,185.5
					c16.6,64.8,48.2,106.9,56.4,117.4c46.3,59.6,102.6,86.5,129.8,97.4c17.9,7.1,62.1,22.9,119.4,22.6c12.5-0.3,25-1.2,37.6-2.5
					c20.4-2.7,41.8-7.6,63.9-15.6c109.7-39.9,158.1-128.9,169.3-151c8.2-16.2,65.9-135.1,7.7-265.8
					C705,381.8,602.4,340.3,582.1,332.6c1.3,12.6,1.9,28.5,0,46.7c-2,18.6-6,34.4-10,46.7c-2.2-16-5.6-34.1-11-53.6
					c-5.3-19.5-11.6-36.8-17.8-51.6c-44.1,48-87.5,74.3-116.4,88.8c-39.9,19.9-59.6,20.8-76,16c-25.4-7.4-40.3-27.9-46.9-38.6
					c6.5,4.2,15.9,9.2,27.9,12.5c7.5,2,14.3,3,20,3.3c-4.6-7.7-9.3-15.4-14-23.2c4.5,3.5,10.3,7.4,17.3,11c7,3.6,13.5,6,19,7.7
					c43.2-16.6,69.6-57.2,90-96.8c-28.9,12.4-58.2-1.9-81-15.7c-22.8-13.8-35-9.9-53.3,4.6c0,0.3-0.5,0.1-0.6,0.2
					c-2.3,8.6-3.2,17.3-3.4,26.2c-9.1-6.7-13.7-16.1-17.1-26.8c-8.2-1-15.9-2.8-23.6-5.9c-0.2,9.3,0.2,18.6,1,28
					c-10.6-11.3-16-23.8-16.1-39.2c0-0.6,0.2,0-0.7-0.5c18.7-27.7,30.9-33.3,68.9-30.6c38,2.7,72.7-46.9,139.6-53.7
					s134.8-75.8,146.1-147.4c8.4,56.4-6.6,117.9-44.3,160.7c50.5-3.4,94.3-42.8,124.5-79.8c-13.8,51.1-50.9,97.3-91.3,129.8
					c32.3-6.4,67.7-12.4,95.8-30.5c-11.8,20.1-24.5,31-34.1,37.4c0,0-3.3,2.2-30.6,17.3c34.7,14.3,160.9,71.2,216.5,205.3
					c24.6,59.2,31.6,124.2,23.2,188.1c42.2-86.6,58-187.1,38.9-289.1C875.5,127.2,632.4-39.2,379.8,8C127.2,55.3-39.3,298.4,8,551
					c16.9,90.2,58.7,169.4,117,231.8C113.4,754.8,100.9,712.8,102.7,661.8z"/>
				<path class="st1" d="M471.8,210.9c-15.5,5.8-30.9,11.5-46.4,17.3c8.6,2.4,17.1,4.9,25.7,7.3C458,227.3,464.9,219.1,471.8,210.9z
					"/>
			</g>
		</g>
	</g>
	<g>
		<path class="st2" d="M382.1,762.1l15.4-37.4h23.1v1.5h-1.8c-1.7,0-3,0.3-4,0.9c-0.7,0.4-1.3,1-1.7,2c-0.3,0.7-0.5,2.4-0.5,5.2
			v37.4c0,2.9,0.1,4.7,0.5,5.4c0.3,0.7,0.9,1.4,1.9,1.9c1,0.5,2.2,0.8,3.8,0.8h1.8v1.5H391v-1.5h1.8c1.7,0,3-0.3,4-0.9
			c0.7-0.4,1.3-1.1,1.7-2c0.3-0.7,0.5-2.4,0.5-5.3v-42.1l-21.8,51.8h-1L354.1,730v40c0,2.8,0.1,4.5,0.2,5.2c0.4,1.4,1.1,2.5,2.4,3.4
			c1.2,0.9,3.1,1.3,5.7,1.3v1.5H343v-1.5h0.6c1.3,0,2.4-0.2,3.5-0.6c1.1-0.4,1.9-1,2.5-1.7s1-1.7,1.3-3.1c0.1-0.3,0.1-1.7,0.1-4.3
			v-35.9c0-2.9-0.1-4.7-0.5-5.4s-0.9-1.3-1.9-1.9c-1-0.5-2.2-0.8-3.8-0.8H343v-1.5h23.2L382.1,762.1z"/>
		<path class="st2" d="M457.9,779.9v1.5h-29.7v-1.5h1.9c1.6,0,3-0.3,4-0.9c0.7-0.4,1.3-1.1,1.7-2c0.3-0.7,0.5-2.4,0.5-5.3v-37.4
			c0-2.9-0.1-4.7-0.5-5.4c-0.3-0.7-0.9-1.4-1.9-1.9c-0.9-0.5-2.2-0.8-3.8-0.8h-1.9v-1.5h29.7v1.5h-1.9c-1.6,0-3,0.3-4,0.9
			c-0.7,0.4-1.3,1.1-1.7,2c-0.3,0.7-0.5,2.4-0.5,5.3v37.4c0,2.9,0.2,4.7,0.5,5.4c0.3,0.7,1,1.4,1.9,1.9c0.9,0.5,2.2,0.8,3.8,0.8
			H457.9z"/>
		<g>
			<g>
				<path class="st0" d="M489.4,617.4l-7.8,72.6H297.9v-5.7h6.9c6,0,10.8-1.1,14.5-3.2c2.6-1.4,4.7-3.9,6.1-7.3
					c1.1-2.4,1.7-8.8,1.7-19.2V518.5c0-10.6-0.6-17.2-1.7-19.8c-1.1-2.6-3.4-5-6.8-6.9s-8-3-13.8-3h-6.9v-5.6h110.3v5.6h-9
					c-6,0-10.8,1.1-14.5,3.2c-2.6,1.4-4.7,3.9-6.3,7.3c-1.1,2.4-1.7,8.9-1.7,19.2v131.8c0,10.6,0.6,17.3,1.8,20.2
					c1.2,2.9,3.6,5.1,7.2,6.5c2.5,0.9,8.7,1.4,18.5,1.4h17.2c11,0,20.1-1.9,27.5-5.8c7.3-3.9,13.7-10,19-18.3s10.4-20.7,15.2-36.9
					L489.4,617.4L489.4,617.4z"/>
				<path class="st0" d="M602.3,478.9v169.2c0,12.7,0.6,20.8,1.7,24.3s3.5,6.4,7,8.6s9.3,3.4,17.1,3.4h4.7v5.6h-109v-5.6h5.5
					c8.8,0,15.2-1,18.9-3c3.8-2,6.3-4.8,7.6-8.4s2-11.8,2-24.9V540.8c0-9.6-0.5-15.5-1.4-17.9c-0.9-2.4-2.6-4.4-5.1-6.1
					s-5.4-2.5-8.6-2.5c-5.2,0-11.5,1.6-18.9,4.9l-2.8-5.5l76.1-34.8H602.3z"/>
			</g>
			<path class="st2" d="M485.5,724.7l28,35.2v-24.4c0-3.4-0.5-5.7-1.5-6.9c-1.3-1.6-3.6-2.4-6.7-2.3v-1.5h18.8v1.5
				c-2.4,0.3-4,0.7-4.8,1.2c-0.8,0.5-1.5,1.3-1.9,2.4c-0.5,1.1-0.7,3-0.7,5.7v47.3h-1.4l-38.4-47.3v36.1c0,3.3,0.8,5.5,2.2,6.6
				s3.2,1.7,5.1,1.7h1.3v1.5h-20.1v-1.5c3.1,0,5.3-0.7,6.5-1.9s1.8-3.4,1.8-6.4v-40.1l-1.2-1.5c-1.2-1.5-2.3-2.5-3.2-3
				c-0.9-0.5-2.2-0.7-4-0.8v-1.5L485.5,724.7L485.5,724.7z"/>
		</g>
		<path class="st2" d="M553.8,727.9V751h1.1c3.6,0,6.2-1.1,7.8-3.4s2.7-5.6,3.1-10h1.6v29.7h-1.6c-0.3-3.2-1-5.9-2.1-8
			s-2.3-3.5-3.8-4.2c-1.4-0.7-3.5-1.1-6.2-1.1v16c0,3.1,0.1,5,0.4,5.7c0.3,0.7,0.8,1.3,1.5,1.7c0.7,0.5,1.9,0.7,3.5,0.7h3.4
			c5.3,0,9.6-1.2,12.8-3.7c3.2-2.5,5.5-6.2,6.9-11.2h1.5l-2.5,18h-49.1v-1.5h1.9c1.7,0,3-0.3,4-0.9c0.7-0.4,1.3-1.1,1.7-2
			c0.3-0.7,0.5-2.4,0.5-5.3v-37.4c0-2.6-0.1-4.2-0.2-4.7c-0.3-1-0.8-1.7-1.5-2.3c-1.1-0.8-2.5-1.2-4.4-1.2h-1.9v-1.5h47.5v16.8h-1.6
			c-0.8-4.1-2-7-3.4-8.8c-1.5-1.8-3.5-3.1-6.2-3.9c-1.6-0.5-4.5-0.8-8.8-0.8L553.8,727.9L553.8,727.9z"/>
	</g>
</g>
<path class="st2" d="M329.7,335.7c0,0-33.9,23.5-65.8,9.7s-118.4-63.7-175.2-6.9c0,0,52.6-15.2,52.6,15.2S65.9,335,20.2,389
	c0,0,18.1-12.8,83.6,2.6c10.9,2.6,21.4,6.8,31.1,12.5c12.4,7.4,37.8,15.8,75.6-4.2c4.3-2.3,9.5-2,13.3,0.9c5.7,4.3,8.4,14.1-13.1,36
	C210.6,436.8,278.4,417.4,329.7,335.7z"/>
</svg>
